<?xml version="1.0" standalone="no"?>
<!DOCTYPE svg PUBLIC "-//W3C//DTD SVG 20010904//EN"
 "http://www.w3.org/TR/2001/REC-SVG-20010904/DTD/svg10.dtd">
<svg version="1.0" xmlns="http://www.w3.org/2000/svg"
 width="64.000000pt" height="64.000000pt" viewBox="0 0 64.000000 64.000000"
 preserveAspectRatio="xMidYMid meet">

<g transform="translate(0.000000,64.000000) scale(0.100000,-0.100000)"
fill="#000000" stroke="none">
<path d="M27 613 c-45 -51 -17 -123 49 -123 65 0 98 71 54 118 -26 27 -80 29
-103 5z"/>
<path d="M266 611 c-23 -25 -23 -76 -1 -101 41 -45 125 -12 125 50 0 61 -84
96 -124 51z"/>
<path d="M511 604 c-24 -30 -26 -46 -10 -77 16 -30 28 -37 66 -37 37 0 73 32
73 66 0 37 -37 74 -75 74 -24 0 -39 -7 -54 -26z"/>
<path d="M21 364 c-24 -30 -26 -46 -10 -77 16 -30 28 -37 66 -37 34 0 73 37
73 70 0 34 -39 70 -75 70 -24 0 -39 -7 -54 -26z"/>
<path d="M265 370 c-42 -46 -10 -120 52 -120 42 0 73 30 73 70 0 62 -84 95
-125 50z"/>
<path d="M510 368 c-44 -47 -11 -118 54 -118 66 0 94 72 49 123 -23 24 -77 22
-103 -5z"/>
<path d="M21 124 c-12 -15 -21 -34 -21 -44 0 -10 9 -29 21 -44 41 -52 129 -21
129 46 0 65 -88 94 -129 42z"/>
<path d="M265 130 c-10 -11 -18 -34 -17 -51 2 -93 142 -92 142 1 0 62 -84 95
-125 50z"/>
<path d="M510 128 c-26 -28 -25 -58 1 -92 17 -22 28 -26 57 -24 65 6 92 77 46
122 -23 24 -79 20 -104 -6z"/>
</g>
</svg>
